<?xml version="1.0" standalone="no"?>
<!DOCTYPE svg PUBLIC "-//W3C//DTD SVG 20010904//EN"
 "http://www.w3.org/TR/2001/REC-SVG-20010904/DTD/svg10.dtd">
<svg version="1.0" xmlns="http://www.w3.org/2000/svg"
 width="500.000000pt" height="500.000000pt" viewBox="0 0 500.000000 500.000000"
 preserveAspectRatio="xMidYMid meet">
<metadata>
Created by potrace 1.14, written by Peter Selinger 2001-2017
</metadata>
<g transform="translate(0.000000,500.000000) scale(0.100000,-0.100000)"
fill="#000000" stroke="none">
<path d="M0 2500 l0 -2500 2500 0 2500 0 0 2500 0 2500 -2500 0 -2500 0 0
-2500z m1475 1589 c14 -42 19 -49 27 -35 6 11 6 28 -1 47 -8 23 -7 29 5 29 7
0 14 -8 14 -17 0 -15 2 -14 14 3 18 24 29 14 18 -17 -10 -25 -6 -49 7 -49 4 0
13 18 20 40 11 37 27 58 37 47 6 -6 -34 -108 -47 -122 -7 -7 -16 -2 -28 14
l-19 24 -6 -21 c-12 -36 -32 -25 -55 29 -23 56 -26 79 -12 79 5 0 17 -23 26
-51z m290 36 c0 -5 -15 -11 -32 -13 -43 -4 -45 -32 -3 -32 17 0 30 -4 30 -10
0 -5 -13 -10 -30 -10 -20 0 -30 -5 -30 -15 0 -10 11 -15 35 -15 19 0 35 -4 35
-10 0 -5 -20 -10 -45 -10 l-45 0 0 66 0 65 43 -3 c23 -2 42 -7 42 -13z m149
-1 c18 -18 20 -30 6 -39 -6 -4 -5 -13 2 -24 20 -33 3 -51 -47 -51 l-45 0 0 65
0 65 34 0 c19 0 42 -7 50 -16z m257 -10 c23 -21 24 -52 3 -82 -11 -16 -25 -22
-55 -22 l-39 0 0 66 0 67 36 -6 c20 -3 45 -14 55 -23z m167 9 c2 -9 -7 -13
-27 -13 -21 0 -31 -5 -31 -15 0 -9 9 -15 25 -15 14 0 25 -4 25 -10 0 -5 -11
-10 -25 -10 -16 0 -25 -6 -25 -15 0 -10 10 -15 30 -15 17 0 30 -4 30 -10 0 -5
-20 -10 -45 -10 l-45 0 0 66 0 65 42 -3 c23 -2 43 -9 46 -15z m92 -31 c8 -23
17 -42 21 -42 3 0 11 18 18 40 11 37 27 58 37 48 7 -7 -43 -122 -55 -126 -10
-3 -37 49 -56 107 -13 43 19 18 35 -27z m220 33 c0 -10 -10 -15 -30 -15 -20 0
-30 -5 -30 -15 0 -9 9 -15 25 -15 14 0 25 -4 25 -10 0 -5 -11 -10 -25 -10 -16
0 -25 -6 -25 -15 0 -10 10 -15 30 -15 17 0 30 -4 30 -10 0 -5 -18 -10 -40 -10
l-40 0 0 65 0 65 40 0 c29 0 40 -4 40 -15z m90 -40 l0 -55 35 0 c19 0 35 -4
35 -10 0 -5 -20 -10 -45 -10 l-45 0 0 65 c0 37 4 65 10 65 6 0 10 -25 10 -55z
m214 34 c46 -36 25 -109 -32 -109 -81 0 -82 119 -1 129 4 1 18 -8 33 -20z
m167 2 c21 -16 22 -22 11 -45 -8 -18 -19 -26 -37 -26 -18 0 -25 -5 -25 -20 0
-11 -7 -20 -15 -20 -12 0 -15 13 -15 58 0 32 3 62 7 65 12 13 51 7 74 -12z
m164 4 c0 -5 -15 -11 -32 -13 -43 -4 -45 -32 -3 -32 17 0 30 -4 30 -10 0 -5
-13 -10 -30 -10 -20 0 -30 -5 -30 -15 0 -10 11 -15 35 -15 19 0 35 -4 35 -10
0 -5 -20 -10 -45 -10 l-45 0 0 66 0 65 43 -3 c23 -2 42 -7 42 -13z m144 -4
c20 -20 19 -61 -1 -61 -6 0 -3 -11 6 -25 14 -21 14 -25 2 -25 -9 0 -20 9 -26
20 -6 11 -17 20 -25 20 -8 0 -15 -9 -15 -20 0 -11 -4 -20 -10 -20 -6 0 -10 28
-10 65 l0 65 30 0 c17 0 39 -9 49 -19z m-2049 -61 c0 -5 -11 -10 -25 -10 -14
0 -25 5 -25 10 0 6 11 10 25 10 14 0 25 -4 25 -10z m2270 0 c0 -5 -13 -10 -30
-10 -16 0 -30 5 -30 10 0 6 14 10 30 10 17 0 30 -4 30 -10z m-2318 -700 c48
-6 143 -24 210 -40 153 -38 191 -38 220 -5 42 48 45 37 52 -152 13 -364 13
-358 -8 -358 -12 0 -38 31 -80 97 -128 203 -241 323 -356 377 -49 23 -67 26
-165 26 -97 0 -116 -3 -165 -26 -105 -49 -151 -115 -158 -226 -4 -60 -1 -79
18 -118 40 -83 157 -148 370 -207 317 -87 444 -147 543 -257 108 -120 151
-321 112 -526 -40 -209 -194 -383 -394 -445 -154 -48 -334 -45 -618 11 -85 16
-167 29 -181 27 -18 -2 -35 -15 -51 -41 -13 -20 -30 -37 -37 -37 -18 0 -22 37
-29 240 -3 96 -8 223 -12 283 l-6 107 24 0 c19 0 32 -15 66 -74 104 -182 286
-376 412 -439 162 -81 328 -74 462 19 79 54 116 181 85 288 -36 122 -150 196
-442 285 -265 81 -353 123 -450 219 -101 99 -139 207 -139 397 0 117 3 137 28
205 75 203 258 343 485 370 97 11 108 11 204 0z m1803 -693 c95 -368 175 -670
177 -672 2 -2 73 291 157 653 84 361 155 665 157 675 5 16 31 17 355 17 l349
0 0 -25 c0 -24 -2 -25 -70 -25 l-70 0 0 -875 0 -875 70 0 c68 0 70 -1 70 -25
l0 -25 -400 0 -400 0 0 25 c0 24 2 25 70 25 l70 0 -1 828 c0 455 -2 823 -5
817 -4 -11 -394 -1683 -394 -1691 0 -2 -75 -3 -167 -2 l-167 3 -230 847 c-127
466 -234 850 -238 854 -5 4 -8 -367 -8 -824 l0 -832 75 0 c73 0 75 -1 75 -25
l0 -25 -180 0 -180 0 0 25 c0 24 2 25 70 25 l70 0 0 875 0 875 -70 0 c-68 0
-70 1 -70 25 l0 25 356 -2 357 -3 172 -668z"/>
<path d="M1850 4095 c0 -9 9 -15 25 -15 16 0 25 6 25 15 0 9 -9 15 -25 15 -16
0 -25 -6 -25 -15z"/>
<path d="M1850 4045 c0 -12 7 -15 25 -13 14 2 26 8 26 13 0 6 -12 11 -26 13
-18 2 -25 -1 -25 -13z"/>
<path d="M2100 4070 c0 -39 1 -41 28 -38 24 3 27 7 27 38 0 31 -3 35 -27 38
-27 3 -28 1 -28 -38z"/>
<path d="M2892 4098 c-25 -25 -6 -68 30 -68 9 0 22 9 28 20 22 40 -26 80 -58
48z"/>
<path d="M3070 4090 c0 -13 7 -20 20 -20 13 0 20 7 20 20 0 13 -7 20 -20 20
-13 0 -20 -7 -20 -20z"/>
<path d="M3370 4089 c0 -15 5 -20 22 -17 34 5 37 38 4 38 -20 0 -26 -5 -26
-21z"/>
</g>
</svg>
